# Blender v2.93.4 OBJ File: ''
# www.blender.org
o Sphere_Sphere.001
v 0.000000 0.129344 -0.053576
v 0.000000 0.098995 -0.098995
v 0.000000 0.077780 -0.116406
v 0.000000 0.053576 -0.129344
v 0.000000 0.027313 -0.137311
v 0.000000 -0.000000 -0.140001
v 0.000000 -0.027313 -0.137311
v 0.000000 -0.053576 -0.129344
v 0.000000 -0.077780 -0.116406
v 0.000000 -0.098995 -0.098995
v 0.000000 -0.116406 -0.077780
v 0.000000 -0.129344 -0.053576
v 0.000000 -0.137311 -0.027313
v 0.011109 0.137311 -0.024951
v 0.021791 0.129344 -0.048944
v 0.031636 0.116406 -0.071056
v 0.040265 0.098995 -0.090437
v 0.047347 0.077780 -0.106342
v 0.052609 0.053576 -0.118161
v 0.055849 0.027313 -0.125439
v 0.056943 -0.000000 -0.127897
v 0.055849 -0.027313 -0.125439
v 0.052609 -0.053576 -0.118161
v 0.047347 -0.077780 -0.106342
v 0.040265 -0.098995 -0.090437
v 0.031636 -0.116406 -0.071056
v 0.021791 -0.129344 -0.048944
v 0.011109 -0.137311 -0.024951
v 0.020297 0.137311 -0.018276
v 0.039815 0.129344 -0.035849
v 0.057802 0.116406 -0.052045
v 0.073568 0.098995 -0.066241
v 0.086507 0.077780 -0.077891
v 0.096121 0.053576 -0.086548
v 0.102042 0.027313 -0.091879
v 0.104041 -0.000000 -0.093679
v 0.102042 -0.027313 -0.091879
v 0.096121 -0.053576 -0.086548
v 0.086507 -0.077780 -0.077891
v 0.073568 -0.098995 -0.066241
v 0.057802 -0.116406 -0.052045
v 0.039815 -0.129344 -0.035849
v 0.020297 -0.137311 -0.018276
v 0.025976 0.137311 -0.008440
v 0.050954 0.129344 -0.016556
v 0.073973 0.116406 -0.024035
v 0.094150 0.098995 -0.030591
v 0.110709 0.077780 -0.035971
v 0.123013 0.053576 -0.039969
v 0.130590 0.027313 -0.042431
v 0.133149 -0.000000 -0.043263
v 0.130590 -0.027313 -0.042431
v 0.123013 -0.053576 -0.039969
v 0.110709 -0.077780 -0.035972
v 0.094150 -0.098995 -0.030591
v 0.073973 -0.116406 -0.024035
v 0.050954 -0.129344 -0.016556
v 0.025976 -0.137311 -0.008440
v 0.027163 0.137311 0.002855
v 0.053282 0.129344 0.005600
v 0.077354 0.116406 0.008130
v 0.098453 0.098995 0.010348
v 0.115769 0.077780 0.012168
v 0.128635 0.053576 0.013520
v 0.136558 0.027313 0.014353
v 0.139234 -0.000000 0.014634
v 0.136558 -0.027313 0.014353
v 0.128635 -0.053576 0.013520
v 0.115769 -0.077780 0.012168
v 0.098453 -0.098995 0.010348
v 0.077354 -0.116406 0.008130
v 0.053282 -0.129344 0.005600
v 0.027163 -0.137311 0.002855
v 0.023654 0.137311 0.013656
v 0.046398 0.129344 0.026788
v 0.067360 0.116406 0.038890
v 0.085733 0.098995 0.049498
v 0.100811 0.077780 0.058203
v 0.112015 0.053576 0.064672
v 0.118914 0.027313 0.068655
v 0.121244 -0.000000 0.070000
v 0.118914 -0.027313 0.068655
v 0.112015 -0.053576 0.064672
v 0.100811 -0.077780 0.058203
v 0.085733 -0.098995 0.049498
v 0.067360 -0.116406 0.038890
v 0.046398 -0.129344 0.026788
v 0.023654 -0.137311 0.013656
v 0.016054 0.137311 0.022097
v 0.031491 0.129344 0.043344
v 0.045718 0.116406 0.062926
v 0.058188 0.098995 0.080089
v 0.068422 0.077780 0.094175
v 0.076026 0.053576 0.104641
v 0.080709 0.027313 0.111087
v 0.082290 -0.000000 0.113263
v 0.080709 -0.027313 0.111087
v 0.076026 -0.053576 0.104641
v 0.068422 -0.077780 0.094175
v 0.058188 -0.098995 0.080089
v 0.045718 -0.116406 0.062926
v 0.031491 -0.129344 0.043344
v 0.016054 -0.137311 0.022097
v 0.005679 0.137311 0.026716
v 0.011139 0.129344 0.052405
v 0.016171 0.116406 0.076081
v 0.020582 0.098995 0.096832
v 0.024202 0.077780 0.113863
v 0.026892 0.053576 0.126517
v 0.028548 0.027313 0.134310
v 0.029108 -0.000000 0.136941
v 0.028548 -0.027313 0.134310
v 0.026892 -0.053576 0.126517
v 0.024202 -0.077780 0.113863
v 0.020582 -0.098995 0.096832
v 0.016171 -0.116406 0.076081
v 0.011139 -0.129344 0.052405
v 0.005679 -0.137311 0.026716
v -0.005679 0.137311 0.026716
v -0.011139 0.129344 0.052405
v -0.016171 0.116406 0.076081
v -0.020582 0.098995 0.096832
v -0.024202 0.077780 0.113863
v -0.026892 0.053576 0.126517
v -0.028548 0.027313 0.134310
v -0.029108 -0.000000 0.136941
v -0.028548 -0.027313 0.134310
v -0.026892 -0.053576 0.126517
v -0.024202 -0.077780 0.113863
v -0.020582 -0.098995 0.096832
v -0.016171 -0.116406 0.076081
v -0.011139 -0.129344 0.052405
v -0.005679 -0.137311 0.026716
v -0.016054 0.137311 0.022097
v -0.031491 0.129344 0.043344
v -0.045718 0.116406 0.062926
v -0.058188 0.098995 0.080089
v -0.068422 0.077780 0.094175
v -0.076026 0.053576 0.104641
v -0.080709 0.027313 0.111087
v -0.082290 -0.000000 0.113263
v -0.080709 -0.027313 0.111087
v -0.076026 -0.053576 0.104641
v -0.068422 -0.077780 0.094175
v -0.058188 -0.098995 0.080089
v -0.045718 -0.116406 0.062926
v -0.031491 -0.129344 0.043344
v -0.016054 -0.137311 0.022097
v -0.000000 0.140001 0.000000
v -0.023654 0.137311 0.013656
v -0.046398 0.129344 0.026788
v -0.067360 0.116406 0.038890
v -0.085733 0.098995 0.049498
v -0.100811 0.077780 0.058203
v -0.112015 0.053576 0.064672
v -0.118914 0.027313 0.068655
v -0.121244 -0.000000 0.070000
v -0.118914 -0.027313 0.068655
v -0.112015 -0.053576 0.064672
v -0.100811 -0.077780 0.058203
v -0.085733 -0.098995 0.049498
v -0.067360 -0.116406 0.038890
v -0.046398 -0.129344 0.026788
v -0.023654 -0.137311 0.013656
v 0.000000 -0.140001 0.000000
v -0.027163 0.137311 0.002855
v -0.053282 0.129344 0.005600
v -0.077354 0.116406 0.008130
v -0.098453 0.098995 0.010348
v -0.115769 0.077780 0.012168
v -0.128635 0.053576 0.013520
v -0.136558 0.027313 0.014353
v -0.139234 -0.000000 0.014634
v -0.136558 -0.027313 0.014353
v -0.128635 -0.053576 0.013520
v -0.115769 -0.077780 0.012168
v -0.098453 -0.098995 0.010348
v -0.077354 -0.116406 0.008130
v -0.053282 -0.129344 0.005600
v -0.027163 -0.137311 0.002855
v -0.025976 0.137311 -0.008440
v -0.050954 0.129344 -0.016556
v -0.073973 0.116406 -0.024035
v -0.094150 0.098995 -0.030591
v -0.110709 0.077780 -0.035972
v -0.123013 0.053576 -0.039969
v -0.130590 0.027313 -0.042431
v -0.133149 -0.000000 -0.043263
v -0.130590 -0.027313 -0.042431
v -0.123013 -0.053576 -0.039969
v -0.110709 -0.077780 -0.035972
v -0.094150 -0.098995 -0.030591
v -0.073973 -0.116406 -0.024035
v -0.050954 -0.129344 -0.016556
v -0.025976 -0.137311 -0.008440
v -0.020297 0.137311 -0.018276
v -0.039815 0.129344 -0.035849
v -0.057802 0.116406 -0.052045
v -0.073568 0.098995 -0.066241
v -0.086507 0.077780 -0.077891
v -0.096121 0.053576 -0.086548
v -0.102042 0.027313 -0.091879
v -0.104041 -0.000000 -0.093679
v -0.102042 -0.027313 -0.091879
v -0.096121 -0.053576 -0.086548
v -0.086507 -0.077780 -0.077891
v -0.073568 -0.098995 -0.066241
v -0.057802 -0.116406 -0.052045
v -0.039815 -0.129344 -0.035849
v -0.020297 -0.137311 -0.018276
v -0.011109 0.137311 -0.024951
v -0.021791 0.129344 -0.048944
v -0.031636 0.116406 -0.071056
v -0.040265 0.098995 -0.090437
v -0.047347 0.077780 -0.106342
v -0.052609 0.053576 -0.118161
v -0.055849 0.027313 -0.125439
v -0.056943 -0.000000 -0.127897
v -0.055849 -0.027313 -0.125439
v -0.052609 -0.053576 -0.118161
v -0.047347 -0.077780 -0.106342
v -0.040265 -0.098995 -0.090437
v -0.031636 -0.116406 -0.071056
v -0.021791 -0.129344 -0.048944
v -0.011109 -0.137311 -0.024951
v -0.000000 0.137311 -0.027313
v -0.000000 0.116406 -0.077780
vn 0.1842 -0.4633 -0.8668
vn 0.1336 0.7661 -0.6287
vn 0.1621 -0.6260 -0.7628
vn 0.1621 0.6260 -0.7628
vn 0.1336 -0.7661 -0.6287
vn 0.1842 0.4633 -0.8668
vn 0.0997 -0.8775 -0.4690
vn 0.1993 0.2845 -0.9377
vn 0.0616 -0.9551 -0.2897
vn 0.2070 0.0959 -0.9736
vn 0.0208 0.9950 -0.0980
vn 0.0208 -0.9950 -0.0980
vn 0.2070 -0.0959 -0.9736
vn 0.0616 0.9551 -0.2897
vn 0.1993 -0.2845 -0.9377
vn 0.0997 0.8775 -0.4690
vn 0.5635 -0.2845 -0.7756
vn 0.2819 0.8775 -0.3879
vn 0.5209 -0.4633 -0.7169
vn 0.3778 0.7661 -0.5200
vn 0.4584 -0.6260 -0.6309
vn 0.4584 0.6260 -0.6309
vn 0.3778 -0.7661 -0.5200
vn 0.5209 0.4633 -0.7169
vn 0.2819 -0.8775 -0.3879
vn 0.5635 0.2845 -0.7756
vn 0.1741 -0.9551 -0.2396
vn 0.5851 0.0959 -0.8053
vn 0.0589 0.9950 -0.0811
vn 0.0589 -0.9950 -0.0811
vn 0.5851 -0.0959 -0.8053
vn 0.1741 0.9551 -0.2396
vn 0.4153 -0.8775 -0.2398
vn 0.8302 0.2845 -0.4793
vn 0.2565 -0.9551 -0.1481
vn 0.8620 0.0959 -0.4977
vn 0.0868 0.9950 -0.0501
vn 0.0868 -0.9950 -0.0501
vn 0.8620 -0.0959 -0.4977
vn 0.2565 0.9551 -0.1481
vn 0.8302 -0.2845 -0.4793
vn 0.4153 0.8775 -0.2398
vn 0.7675 -0.4633 -0.4431
vn 0.5566 0.7661 -0.3214
vn 0.6753 -0.6260 -0.3899
vn 0.6753 0.6260 -0.3899
vn 0.5566 -0.7661 -0.3214
vn 0.7675 0.4633 -0.4431
vn 0.4769 0.8775 -0.0501
vn 0.8813 -0.4633 -0.0926
vn 0.6392 0.7661 -0.0672
vn 0.7756 -0.6260 -0.0815
vn 0.7756 0.6260 -0.0815
vn 0.6392 -0.7661 -0.0672
vn 0.8813 0.4633 -0.0926
vn 0.4769 -0.8775 -0.0501
vn 0.9534 0.2845 -0.1002
vn 0.2946 -0.9551 -0.0310
vn 0.9899 0.0959 -0.1040
vn 0.0996 0.9950 -0.0105
vn 0.0996 -0.9950 -0.0105
vn 0.9899 -0.0959 -0.1040
vn 0.2946 0.9551 -0.0310
vn 0.9534 -0.2845 -0.1002
vn 0.9118 0.2845 0.2963
vn 0.2817 -0.9551 0.0915
vn 0.9467 0.0959 0.3076
vn 0.0953 0.9950 0.0310
vn 0.0953 -0.9950 0.0310
vn 0.9467 -0.0959 0.3076
vn 0.2817 0.9551 0.0915
vn 0.9118 -0.2845 0.2963
vn 0.4561 0.8775 0.1482
vn 0.8428 -0.4633 0.2738
vn 0.6113 0.7661 0.1986
vn 0.7417 -0.6260 0.2410
vn 0.7417 0.6260 0.2410
vn 0.6113 -0.7661 0.1986
vn 0.8428 0.4633 0.2738
vn 0.4561 -0.8775 0.1482
vn 0.6586 -0.4633 0.5930
vn 0.4777 0.7661 0.4301
vn 0.5795 -0.6260 0.5218
vn 0.5795 0.6260 0.5218
vn 0.4777 -0.7661 0.4301
vn 0.6586 0.4633 0.5930
vn 0.3564 -0.8775 0.3209
vn 0.7124 0.2845 0.6415
vn 0.2201 -0.9551 0.1982
vn 0.7397 0.0959 0.6660
vn 0.0745 0.9950 0.0670
vn 0.0745 -0.9950 0.0670
vn 0.7397 -0.0959 0.6660
vn 0.2201 0.9551 0.1982
vn 0.7124 -0.2845 0.6415
vn 0.3564 0.8775 0.3209
vn 0.1205 -0.9551 0.2706
vn 0.4049 0.0959 0.9093
vn 0.0407 0.9950 0.0915
vn 0.0407 -0.9950 0.0915
vn 0.4049 -0.0959 0.9093
vn 0.1205 0.9551 0.2706
vn 0.3899 -0.2845 0.8758
vn 0.1950 0.8775 0.4381
vn 0.3604 -0.4633 0.8096
vn 0.2614 0.7661 0.5872
vn 0.3172 -0.6260 0.7124
vn 0.3172 0.6260 0.7124
vn 0.2614 -0.7661 0.5872
vn 0.3604 0.4633 0.8096
vn 0.1950 -0.8775 0.4381
vn 0.3899 0.2845 0.8758
vn -0.0000 -0.6260 0.7798
vn -0.0000 0.6260 0.7798
vn -0.0000 -0.7661 0.6427
vn -0.0000 0.4633 0.8862
vn 0.0000 -0.8775 0.4795
vn 0.0000 0.2845 0.9587
vn -0.0000 -0.9551 0.2962
vn 0.0000 0.0959 0.9954
vn -0.0000 0.9950 0.1002
vn -0.0000 -0.9950 0.1002
vn 0.0000 -0.0959 0.9954
vn -0.0000 0.9551 0.2962
vn 0.0000 -0.2845 0.9587
vn 0.0000 0.8775 0.4795
vn -0.0000 -0.4633 0.8862
vn -0.0000 0.7661 0.6427
vn -0.0407 0.9950 0.0915
vn -0.0407 -0.9950 0.0915
vn -0.4049 -0.0959 0.9093
vn -0.1205 0.9551 0.2706
vn -0.3899 -0.2845 0.8758
vn -0.1950 0.8775 0.4381
vn -0.3604 -0.4633 0.8096
vn -0.2614 0.7661 0.5872
vn -0.3172 -0.6260 0.7124
vn -0.3172 0.6260 0.7124
vn -0.2614 -0.7661 0.5872
vn -0.3604 0.4633 0.8096
vn -0.1950 -0.8775 0.4381
vn -0.3899 0.2845 0.8758
vn -0.1205 -0.9551 0.2706
vn -0.4049 0.0959 0.9093
vn -0.5795 0.6260 0.5218
vn -0.4777 -0.7661 0.4301
vn -0.6586 0.4633 0.5930
vn -0.3564 -0.8775 0.3209
vn -0.7124 0.2845 0.6415
vn -0.2201 -0.9551 0.1982
vn -0.7397 0.0959 0.6660
vn -0.0745 0.9950 0.0670
vn -0.0745 -0.9950 0.0670
vn -0.7397 -0.0959 0.6660
vn -0.2201 0.9551 0.1982
vn -0.7124 -0.2845 0.6415
vn -0.3564 0.8775 0.3209
vn -0.6586 -0.4633 0.5930
vn -0.4777 0.7661 0.4301
vn -0.5795 -0.6260 0.5218
vn -0.9467 -0.0959 0.3076
vn -0.2817 0.9551 0.0915
vn -0.9118 -0.2845 0.2963
vn -0.4561 0.8775 0.1482
vn -0.8428 -0.4633 0.2738
vn -0.6113 0.7661 0.1986
vn -0.7417 -0.6260 0.2410
vn -0.7417 0.6260 0.2410
vn -0.6113 -0.7661 0.1986
vn -0.8428 0.4633 0.2738
vn -0.4561 -0.8775 0.1482
vn -0.9118 0.2845 0.2963
vn -0.2817 -0.9551 0.0915
vn -0.9467 0.0959 0.3076
vn -0.0953 0.9950 0.0310
vn -0.0953 -0.9950 0.0310
vn -0.6392 -0.7661 -0.0672
vn -0.8813 0.4633 -0.0926
vn -0.4769 -0.8775 -0.0501
vn -0.9534 0.2845 -0.1002
vn -0.2946 -0.9551 -0.0310
vn -0.9899 0.0959 -0.1040
vn -0.0996 0.9950 -0.0105
vn -0.0996 -0.9950 -0.0105
vn -0.9899 -0.0959 -0.1040
vn -0.2946 0.9551 -0.0310
vn -0.9534 -0.2845 -0.1002
vn -0.4769 0.8775 -0.0501
vn -0.8813 -0.4633 -0.0926
vn -0.6392 0.7661 -0.0672
vn -0.7756 -0.6260 -0.0815
vn -0.7756 0.6260 -0.0815
vn -0.2565 0.9551 -0.1481
vn -0.8302 -0.2845 -0.4793
vn -0.4153 0.8775 -0.2398
vn -0.7675 -0.4633 -0.4431
vn -0.5566 0.7661 -0.3214
vn -0.6753 -0.6260 -0.3899
vn -0.6753 0.6260 -0.3899
vn -0.5566 -0.7661 -0.3214
vn -0.7675 0.4633 -0.4431
vn -0.4153 -0.8775 -0.2398
vn -0.8302 0.2845 -0.4793
vn -0.2565 -0.9551 -0.1481
vn -0.8620 0.0959 -0.4977
vn -0.0868 0.9950 -0.0501
vn -0.0868 -0.9950 -0.0501
vn -0.8620 -0.0959 -0.4977
vn -0.5209 0.4633 -0.7169
vn -0.2819 -0.8775 -0.3879
vn -0.5635 0.2845 -0.7756
vn -0.1741 -0.9551 -0.2396
vn -0.5851 0.0959 -0.8053
vn -0.0589 0.9950 -0.0811
vn -0.0589 -0.9950 -0.0811
vn -0.5851 -0.0959 -0.8053
vn -0.1741 0.9551 -0.2396
vn -0.5635 -0.2845 -0.7756
vn -0.2819 0.8775 -0.3879
vn -0.5209 -0.4633 -0.7169
vn -0.3778 0.7661 -0.5200
vn -0.4584 -0.6260 -0.6309
vn -0.4584 0.6260 -0.6309
vn -0.3778 -0.7661 -0.5200
vn -0.1993 -0.2845 -0.9377
vn -0.0997 0.8775 -0.4690
vn -0.1842 -0.4633 -0.8668
vn -0.1336 0.7661 -0.6287
vn -0.1621 -0.6260 -0.7628
vn -0.1621 0.6260 -0.7628
vn -0.1336 -0.7661 -0.6287
vn -0.1842 0.4633 -0.8668
vn -0.0997 -0.8775 -0.4690
vn -0.1993 0.2845 -0.9377
vn -0.0616 -0.9551 -0.2897
vn -0.2070 0.0959 -0.9736
vn -0.0208 0.9950 -0.0980
vn -0.0208 -0.9950 -0.0980
vn -0.2070 -0.0959 -0.9736
vn -0.0616 0.9551 -0.2897
s off
f 9/1/1 8/2/1 23/3/1 24/4/1
f 2/5/2 227/6/2 16/7/2 17/8/2
f 10/9/3 9/1/3 24/4/3 25/10/3
f 3/11/4 2/5/4 17/8/4 18/12/4
f 11/13/5 10/9/5 25/10/5 26/14/5
f 4/15/6 3/11/6 18/12/6 19/16/6
f 12/17/7 11/13/7 26/14/7 27/18/7
f 5/19/8 4/15/8 19/16/8 20/20/8
f 13/21/9 12/17/9 27/18/9 28/22/9
f 6/23/10 5/19/10 20/20/10 21/24/10
f 226/25/11 149/26/11 14/27/11
f 165/28/12 13/21/12 28/22/12
f 7/29/13 6/23/13 21/24/13 22/30/13
f 1/31/14 226/25/14 14/27/14 15/32/14
f 8/2/15 7/29/15 22/30/15 23/3/15
f 227/6/16 1/31/16 15/32/16 16/7/16
f 23/3/17 22/30/17 37/33/17 38/34/17
f 16/7/18 15/32/18 30/35/18 31/36/18
f 24/4/19 23/3/19 38/34/19 39/37/19
f 17/8/20 16/7/20 31/36/20 32/38/20
f 25/10/21 24/4/21 39/37/21 40/39/21
f 18/12/22 17/8/22 32/38/22 33/40/22
f 26/14/23 25/10/23 40/39/23 41/41/23
f 19/16/24 18/12/24 33/40/24 34/42/24
f 27/18/25 26/14/25 41/41/25 42/43/25
f 20/20/26 19/16/26 34/42/26 35/44/26
f 28/22/27 27/18/27 42/43/27 43/45/27
f 21/24/28 20/20/28 35/44/28 36/46/28
f 14/27/29 149/47/29 29/48/29
f 165/49/30 28/22/30 43/45/30
f 22/30/31 21/24/31 36/46/31 37/33/31
f 15/32/32 14/27/32 29/48/32 30/35/32
f 42/43/33 41/41/33 56/50/33 57/51/33
f 35/44/34 34/42/34 49/52/34 50/53/34
f 43/45/35 42/43/35 57/51/35 58/54/35
f 36/46/36 35/44/36 50/53/36 51/55/36
f 29/48/37 149/56/37 44/57/37
f 165/58/38 43/45/38 58/54/38
f 37/33/39 36/46/39 51/55/39 52/59/39
f 30/35/40 29/48/40 44/57/40 45/60/40
f 38/34/41 37/33/41 52/59/41 53/61/41
f 31/36/42 30/35/42 45/60/42 46/62/42
f 39/37/43 38/34/43 53/61/43 54/63/43
f 32/38/44 31/36/44 46/62/44 47/64/44
f 40/39/45 39/37/45 54/63/45 55/65/45
f 33/40/46 32/38/46 47/64/46 48/66/46
f 41/41/47 40/39/47 55/65/47 56/50/47
f 34/42/48 33/40/48 48/66/48 49/52/48
f 46/62/49 45/60/49 60/67/49 61/68/49
f 54/63/50 53/61/50 68/69/50 69/70/50
f 47/64/51 46/62/51 61/68/51 62/71/51
f 55/65/52 54/63/52 69/70/52 70/72/52
f 48/66/53 47/64/53 62/71/53 63/73/53
f 56/50/54 55/65/54 70/72/54 71/74/54
f 49/52/55 48/66/55 63/73/55 64/75/55
f 57/51/56 56/50/56 71/74/56 72/76/56
f 50/53/57 49/52/57 64/75/57 65/77/57
f 58/54/58 57/51/58 72/76/58 73/78/58
f 51/55/59 50/53/59 65/77/59 66/79/59
f 44/57/60 149/80/60 59/81/60
f 165/82/61 58/54/61 73/78/61
f 52/59/62 51/55/62 66/79/62 67/83/62
f 45/60/63 44/57/63 59/81/63 60/67/63
f 53/61/64 52/59/64 67/83/64 68/69/64
f 65/77/65 64/75/65 79/84/65 80/85/65
f 73/78/66 72/76/66 87/86/66 88/87/66
f 66/79/67 65/77/67 80/85/67 81/88/67
f 59/81/68 149/89/68 74/90/68
f 165/91/69 73/78/69 88/87/69
f 67/83/70 66/79/70 81/88/70 82/92/70
f 60/67/71 59/81/71 74/90/71 75/93/71
f 68/69/72 67/83/72 82/92/72 83/94/72
f 61/68/73 60/67/73 75/93/73 76/95/73
f 69/70/74 68/69/74 83/94/74 84/96/74
f 62/71/75 61/68/75 76/95/75 77/97/75
f 70/72/76 69/70/76 84/96/76 85/98/76
f 63/73/77 62/71/77 77/97/77 78/99/77
f 71/74/78 70/72/78 85/98/78 86/100/78
f 64/75/79 63/73/79 78/99/79 79/84/79
f 72/76/80 71/74/80 86/100/80 87/86/80
f 84/96/81 83/94/81 98/101/81 99/102/81
f 77/97/82 76/95/82 91/103/82 92/104/82
f 85/98/83 84/96/83 99/102/83 100/105/83
f 78/99/84 77/97/84 92/104/84 93/106/84
f 86/100/85 85/98/85 100/105/85 101/107/85
f 79/84/86 78/99/86 93/106/86 94/108/86
f 87/86/87 86/100/87 101/107/87 102/109/87
f 80/85/88 79/84/88 94/108/88 95/110/88
f 88/87/89 87/86/89 102/109/89 103/111/89
f 81/88/90 80/85/90 95/110/90 96/112/90
f 74/90/91 149/113/91 89/114/91
f 165/115/92 88/87/92 103/111/92
f 82/92/93 81/88/93 96/112/93 97/116/93
f 75/93/94 74/90/94 89/114/94 90/117/94
f 83/94/95 82/92/95 97/116/95 98/101/95
f 76/95/96 75/93/96 90/117/96 91/103/96
f 103/111/97 102/109/97 117/118/97 118/119/97
f 96/112/98 95/110/98 110/120/98 111/121/98
f 89/114/99 149/122/99 104/123/99
f 165/124/100 103/111/100 118/119/100
f 97/116/101 96/112/101 111/121/101 112/125/101
f 90/117/102 89/114/102 104/123/102 105/126/102
f 98/101/103 97/116/103 112/125/103 113/127/103
f 91/103/104 90/117/104 105/126/104 106/128/104
f 99/102/105 98/101/105 113/127/105 114/129/105
f 92/104/106 91/103/106 106/128/106 107/130/106
f 100/105/107 99/102/107 114/129/107 115/131/107
f 93/106/108 92/104/108 107/130/108 108/132/108
f 101/107/109 100/105/109 115/131/109 116/133/109
f 94/108/110 93/106/110 108/132/110 109/134/110
f 102/109/111 101/107/111 116/133/111 117/118/111
f 95/110/112 94/108/112 109/134/112 110/120/112
f 115/131/113 114/129/113 129/135/113 130/136/113
f 108/132/114 107/130/114 122/137/114 123/138/114
f 116/133/115 115/131/115 130/136/115 131/139/115
f 109/134/116 108/132/116 123/138/116 124/140/116
f 117/118/117 116/133/117 131/139/117 132/141/117
f 110/120/118 109/134/118 124/140/118 125/142/118
f 118/119/119 117/118/119 132/141/119 133/143/119
f 111/121/120 110/120/120 125/142/120 126/144/120
f 104/123/121 149/145/121 119/146/121
f 165/147/122 118/119/122 133/143/122
f 112/125/123 111/121/123 126/144/123 127/148/123
f 105/126/124 104/123/124 119/146/124 120/149/124
f 113/127/125 112/125/125 127/148/125 128/150/125
f 106/128/126 105/126/126 120/149/126 121/151/126
f 114/129/127 113/127/127 128/150/127 129/135/127
f 107/130/128 106/128/128 121/151/128 122/137/128
f 119/146/129 149/152/129 134/153/129
f 165/154/130 133/143/130 148/155/130
f 127/148/131 126/144/131 141/156/131 142/157/131
f 120/149/132 119/146/132 134/153/132 135/158/132
f 128/150/133 127/148/133 142/157/133 143/159/133
f 121/151/134 120/149/134 135/158/134 136/160/134
f 129/135/135 128/150/135 143/159/135 144/161/135
f 122/137/136 121/151/136 136/160/136 137/162/136
f 130/136/137 129/135/137 144/161/137 145/163/137
f 123/138/138 122/137/138 137/162/138 138/164/138
f 131/139/139 130/136/139 145/163/139 146/165/139
f 124/140/140 123/138/140 138/164/140 139/166/140
f 132/141/141 131/139/141 146/165/141 147/167/141
f 125/142/142 124/140/142 139/166/142 140/168/142
f 133/143/143 132/141/143 147/167/143 148/155/143
f 126/144/144 125/142/144 140/168/144 141/156/144
f 138/164/145 137/162/145 153/169/145 154/170/145
f 146/165/146 145/163/146 161/171/146 162/172/146
f 139/166/147 138/164/147 154/170/147 155/173/147
f 147/167/148 146/165/148 162/172/148 163/174/148
f 140/168/149 139/166/149 155/173/149 156/175/149
f 148/155/150 147/167/150 163/174/150 164/176/150
f 141/156/151 140/168/151 156/175/151 157/177/151
f 134/153/152 149/178/152 150/179/152
f 165/180/153 148/155/153 164/176/153
f 142/157/154 141/156/154 157/177/154 158/181/154
f 135/158/155 134/153/155 150/179/155 151/182/155
f 143/159/156 142/157/156 158/181/156 159/183/156
f 136/160/157 135/158/157 151/182/157 152/184/157
f 144/161/158 143/159/158 159/183/158 160/185/158
f 137/162/159 136/160/159 152/184/159 153/169/159
f 145/163/160 144/161/160 160/185/160 161/171/160
f 158/181/161 157/177/161 173/186/161 174/187/161
f 151/182/162 150/179/162 166/188/162 167/189/162
f 159/183/163 158/181/163 174/187/163 175/190/163
f 152/184/164 151/182/164 167/189/164 168/191/164
f 160/185/165 159/183/165 175/190/165 176/192/165
f 153/169/166 152/184/166 168/191/166 169/193/166
f 161/171/167 160/185/167 176/192/167 177/194/167
f 154/170/168 153/169/168 169/193/168 170/195/168
f 162/172/169 161/171/169 177/194/169 178/196/169
f 155/173/170 154/170/170 170/195/170 171/197/170
f 163/174/171 162/172/171 178/196/171 179/198/171
f 156/175/172 155/173/172 171/197/172 172/199/172
f 164/176/173 163/174/173 179/198/173 180/200/173
f 157/177/174 156/175/174 172/199/174 173/186/174
f 150/179/175 149/201/175 166/188/175
f 165/202/176 164/176/176 180/200/176
f 178/203/177 177/204/177 192/205/177 193/206/177
f 171/207/178 170/208/178 185/209/178 186/210/178
f 179/211/179 178/203/179 193/206/179 194/212/179
f 172/213/180 171/207/180 186/210/180 187/214/180
f 180/215/181 179/211/181 194/212/181 195/216/181
f 173/217/182 172/213/182 187/214/182 188/218/182
f 166/219/183 149/220/183 181/221/183
f 165/222/184 180/215/184 195/216/184
f 174/223/185 173/217/185 188/218/185 189/224/185
f 167/225/186 166/219/186 181/221/186 182/226/186
f 175/227/187 174/223/187 189/224/187 190/228/187
f 168/229/188 167/225/188 182/226/188 183/230/188
f 176/231/189 175/227/189 190/228/189 191/232/189
f 169/233/190 168/229/190 183/230/190 184/234/190
f 177/204/191 176/231/191 191/232/191 192/205/191
f 170/208/192 169/233/192 184/234/192 185/209/192
f 182/226/193 181/221/193 196/235/193 197/236/193
f 190/228/194 189/224/194 204/237/194 205/238/194
f 183/230/195 182/226/195 197/236/195 198/239/195
f 191/232/196 190/228/196 205/238/196 206/240/196
f 184/234/197 183/230/197 198/239/197 199/241/197
f 192/205/198 191/232/198 206/240/198 207/242/198
f 185/209/199 184/234/199 199/241/199 200/243/199
f 193/206/200 192/205/200 207/242/200 208/244/200
f 186/210/201 185/209/201 200/243/201 201/245/201
f 194/212/202 193/206/202 208/244/202 209/246/202
f 187/214/203 186/210/203 201/245/203 202/247/203
f 195/216/204 194/212/204 209/246/204 210/248/204
f 188/218/205 187/214/205 202/247/205 203/249/205
f 181/221/206 149/250/206 196/235/206
f 165/251/207 195/216/207 210/248/207
f 189/224/208 188/218/208 203/249/208 204/237/208
f 201/245/209 200/243/209 215/252/209 216/253/209
f 209/246/210 208/244/210 223/254/210 224/255/210
f 202/247/211 201/245/211 216/253/211 217/256/211
f 210/248/212 209/246/212 224/255/212 225/257/212
f 203/249/213 202/247/213 217/256/213 218/258/213
f 196/235/214 149/259/214 211/260/214
f 165/261/215 210/248/215 225/257/215
f 204/237/216 203/249/216 218/258/216 219/262/216
f 197/236/217 196/235/217 211/260/217 212/263/217
f 205/238/218 204/237/218 219/262/218 220/264/218
f 198/239/219 197/236/219 212/263/219 213/265/219
f 206/240/220 205/238/220 220/264/220 221/266/220
f 199/241/221 198/239/221 213/265/221 214/267/221
f 207/242/222 206/240/222 221/266/222 222/268/222
f 200/243/223 199/241/223 214/267/223 215/252/223
f 208/244/224 207/242/224 222/268/224 223/254/224
f 220/264/225 219/262/225 7/29/225 8/2/225
f 213/265/226 212/263/226 1/31/226 227/6/226
f 221/266/227 220/264/227 8/2/227 9/1/227
f 214/267/228 213/265/228 227/6/228 2/5/228
f 222/268/229 221/266/229 9/1/229 10/9/229
f 215/252/230 214/267/230 2/5/230 3/11/230
f 223/254/231 222/268/231 10/9/231 11/13/231
f 216/253/232 215/252/232 3/11/232 4/15/232
f 224/255/233 223/254/233 11/13/233 12/17/233
f 217/256/234 216/253/234 4/15/234 5/19/234
f 225/257/235 224/255/235 12/17/235 13/21/235
f 218/258/236 217/256/236 5/19/236 6/23/236
f 211/260/237 149/269/237 226/25/237
f 165/270/238 225/257/238 13/21/238
f 219/262/239 218/258/239 6/23/239 7/29/239
f 212/263/240 211/260/240 226/25/240 1/31/240